<!--
    Copyright (C) 2017 Peter Varo <hello@petervaro.com>
    This work is licensed under a Creative Commons Attribution-ShareAlike 4.0
    International License. (CC-BY-SA) For more information about the license
    visit <https://creativecommons.org/licenses/by-sa/4.0>
-->
<?xml version="1.0"
      encoding="UTF-8"
      standalone="no"?>
<!DOCTYPE svg
          PUBLIC
          "-//W3C//DTD SVG 1.1//EN"
          "http://www.w3.org/Graphics/SVG/1.1/DTD/svg11.dtd">
<svg version="1.1"
     xmlns="http://www.w3.org/2000/svg"
     xmlns:xlink="http://www.w3.org/1999/xlink"
     xml:space="preserve"
     width="100%"
     height="100%"
     viewBox="0 0 98 20">
    <style>
        #rune-lines { stroke: #F0F0F0 }
        #writer-lines { stroke: #FF4422 }
        .lines { stroke-width: 1.2; stroke-linecap: round }
    </style>
    <symbol>
        <g id="rune-e">
            <line x1="0" y1="0" x2="0" y2="18"/>
            <line x1="0" y1="18" x2="8" y2="12"/>
            <line x1="0" y1="12" x2="8" y2="6"/>
            <line x1="0" y1="6" x2="8" y2="0"/>
        </g>
        <g id="rune-i">
            <line x1="0" y1="0" x2="0" y2="18"/>
        </g>
        <g id="rune-n">
            <line x1="0" y1="0" x2="0" y2="18"/>
            <line x1="0" y1="6" x2="8" y2="9"/>
            <line x1="0" y1="9" x2="8" y2="12"/>
            <line x1="8" y1="0" x2="8" y2="18"/>
        </g>
        <g id="rune-r">
            <line x1="0" y1="0" x2="0" y2="18"/>
            <line x1="0" y1="3" x2="4" y2="0"/>
        </g>
        <g id="rune-t">
            <line x1="0" y1="0" x2="4" y2="3"/>
            <line x1="4" y1="0" x2="4" y2="18"/>
            <line x1="4" y1="3" x2="8" y2="0"/>
        </g>
        <g id="rune-u">
            <line x1="0" y1="0" x2="0" y2="18"/>
            <line x1="0" y1="18" x2="8" y2="12"/>
            <line x1="8" y1="0" x2="8" y2="18"/>
        </g>
        <g id="rune-w">
            <line x1="0" y1="0" x2="0" y2="18"/>
            <line x1="0" y1="18" x2="8" y2="12"/>
            <line x1="0" y1="12" x2="8" y2="18"/>
            <line x1="8" y1="0" x2="8" y2="18"/>
        </g>
    </symbol>
    <g transform="translate(1 1)">
        <g id="rune-lines" class="lines">
            <use x="0" y="0" xlink:href="#rune-r"/>
            <use x="8" y="0" xlink:href="#rune-u"/>
            <use x="20" y="0" xlink:href="#rune-n"/>
            <use x="32" y="0" xlink:href="#rune-e"/>
        </g>
        <g id="writer-lines" class="lines">
            <use x="44" y="0" xlink:href="#rune-w"/>
            <use x="56" y="0" xlink:href="#rune-r"/>
            <use x="64" y="0" xlink:href="#rune-i"/>
            <use x="68" y="0" xlink:href="#rune-t"/>
            <use x="80" y="0" xlink:href="#rune-e"/>
            <use x="92" y="0" xlink:href="#rune-r"/>
        </g>
    </g>
</svg>
